<svg xmlns="http://www.w3.org/2000/svg" viewBox="0 0 1040 650" width="1040" height="650" role="img" aria-label="Model evaluation">
  <defs>
    <marker id="ah" viewBox="0 0 10 10" refX="8" refY="5" markerWidth="7" markerHeight="7" orient="auto-start-reverse">
      <path d="M0 0 L10 5 L0 10 z" fill="#2E73B8"/>
    </marker>
    <linearGradient id="bar" x1="0" y1="0" x2="1" y2="0">
      <stop offset="0" stop-color="#5B9BD5"/><stop offset="1" stop-color="#9AC6EC"/>
    </linearGradient>
    <linearGradient id="bg" x1="0" y1="0" x2="0" y2="1">
      <stop offset="0" stop-color="#FFFFFF"/><stop offset="1" stop-color="#F3F9FF"/>
    </linearGradient>
  </defs>
  <rect width="1040" height="650" rx="20" fill="url(#bg)"/>
  <rect x="1" y="1" width="1038" height="648" rx="19" fill="none" stroke="#CBE0F5" stroke-width="2"/>
  <rect x="34" y="40" width="6" height="30" rx="3" fill="#2E73B8"/>
  <text x="52" y="56" font-family="'Inter','Helvetica Neue',Helvetica,Arial,system-ui,sans-serif" font-size="24" font-weight="800" fill="#123E73">Model evaluation</text>
  <text x="52" y="80" font-family="'Inter','Helvetica Neue',Helvetica,Arial,system-ui,sans-serif" font-size="14" font-weight="500" fill="#5E6B7A">ROC and precision–recall versus baseline</text>
  <rect x="50" y="120" width="440" height="420" rx="10" fill="#FFFFFF" stroke="#CBE0F5" stroke-width="1.5"/><line x1="90" y1="506" x2="470" y2="506" stroke="#5E6B7A" stroke-width="1.5"/><line x1="90" y1="140" x2="90" y2="506" stroke="#5E6B7A" stroke-width="1.5"/><line x1="90" y1="231.5" x2="470" y2="231.5" stroke="#E8F2FC" stroke-width="1"/><line x1="90" y1="323" x2="470" y2="323" stroke="#E8F2FC" stroke-width="1"/><line x1="90" y1="414.5" x2="470" y2="414.5" stroke="#E8F2FC" stroke-width="1"/><line x1="90" y1="506" x2="470" y2="142" stroke="#5E6B7A" stroke-width="1.5" stroke-dasharray="5 4"/><path d="M90 506 C 130 152, 180 142, 470 142" fill="none" stroke="url(#bar)" stroke-width="4"/><text x="270" y="132" font-family="'Inter','Helvetica Neue',Helvetica,Arial,system-ui,sans-serif" font-size="14" font-weight="700" fill="#123E73" text-anchor="middle" dominant-baseline="middle">ROC curve</text><rect x="550" y="120" width="440" height="420" rx="10" fill="#FFFFFF" stroke="#CBE0F5" stroke-width="1.5"/><line x1="590" y1="506" x2="970" y2="506" stroke="#5E6B7A" stroke-width="1.5"/><line x1="590" y1="140" x2="590" y2="506" stroke="#5E6B7A" stroke-width="1.5"/><line x1="590" y1="231.5" x2="970" y2="231.5" stroke="#E8F2FC" stroke-width="1"/><line x1="590" y1="323" x2="970" y2="323" stroke="#E8F2FC" stroke-width="1"/><line x1="590" y1="414.5" x2="970" y2="414.5" stroke="#E8F2FC" stroke-width="1"/><line x1="590" y1="389.52" x2="970" y2="389.52" stroke="#5E6B7A" stroke-width="1.5" stroke-dasharray="5 4"/><path d="M590 142 C 792 142, 930 287.6, 970 506" fill="none" stroke="url(#bar)" stroke-width="4"/><text x="770" y="132" font-family="'Inter','Helvetica Neue',Helvetica,Arial,system-ui,sans-serif" font-size="14" font-weight="700" fill="#123E73" text-anchor="middle" dominant-baseline="middle">Precision–Recall</text><rect x="700" y="570" width="120" height="30" rx="15" fill="#FFFFFF" stroke="#CBE0F5" stroke-width="1.5"/><text x="760" y="585" font-family="'Inter','Helvetica Neue',Helvetica,Arial,system-ui,sans-serif" font-size="12.5" font-weight="600" fill="#1F5FA6" text-anchor="middle" dominant-baseline="middle">model</text><line x1="180" y1="585" x2="230" y2="585" stroke="#5E6B7A" stroke-width="2" stroke-dasharray="5 4"/><text x="300" y="585" font-family="'Inter','Helvetica Neue',Helvetica,Arial,system-ui,sans-serif" font-size="12.5" font-weight="600" fill="#5E6B7A" text-anchor="middle" dominant-baseline="middle">baseline</text>
</svg>
